<svg width="20" height="20" viewBox="0 0 20 20" fill="none" xmlns="http://www.w3.org/2000/svg">
<path d="M8.55667 17.5C8.70296 17.7533 8.91335 17.9637 9.16671 18.11C9.42006 18.2563 9.70746 18.3333 10 18.3333C10.2926 18.3333 10.5799 18.2563 10.8333 18.11C11.0867 17.9637 11.2971 17.7533 11.4433 17.5" stroke="#686868" stroke-width="2" stroke-linecap="round" stroke-linejoin="round"/>
<path d="M11.5967 1.92829C10.8446 1.67485 10.0429 1.60409 9.25807 1.72186C8.47321 1.83962 7.72765 2.14254 7.08305 2.60555C6.43845 3.06856 5.91333 3.67836 5.55111 4.38454C5.18889 5.09071 4.99998 5.87297 5 6.66663C5 10.4158 3.82417 11.63 2.71667 12.7725C2.60798 12.8919 2.53634 13.0404 2.51047 13.1998C2.48459 13.3592 2.5056 13.5227 2.57093 13.6704C2.63626 13.8181 2.74309 13.9436 2.87845 14.0317C3.0138 14.1198 3.17184 14.1667 3.33333 14.1666H16.6667C16.8282 14.1667 16.9862 14.1198 17.1216 14.0317C17.2569 13.9436 17.3637 13.8181 17.4291 13.6704C17.4944 13.5227 17.5154 13.3592 17.4895 13.1998C17.4637 13.0404 17.392 12.8919 17.2833 12.7725C17.1118 12.5958 16.9491 12.4109 16.7958 12.2183" stroke="#686868" stroke-width="2" stroke-linecap="round" stroke-linejoin="round"/>
<path d="M15 9.1665C16.3807 9.1665 17.5 8.04722 17.5 6.6665C17.5 5.28579 16.3807 4.1665 15 4.1665C13.6193 4.1665 12.5 5.28579 12.5 6.6665C12.5 8.04722 13.6193 9.1665 15 9.1665Z" fill="#E64A3B" stroke="#E64A3B" stroke-width="2" stroke-linecap="round" stroke-linejoin="round"/>
</svg>
