<svg width="64" height="64" viewBox="0 0 64 64" fill="none" xmlns="http://www.w3.org/2000/svg">
<path d="M61.1549 37.8009C61.5403 35.853 64 34.0608 64 32C64 29.9392 61.5403 28.147 61.1549 26.1991C60.7578 24.192 62.337 21.5973 61.5717 19.7509C60.7924 17.8721 57.8333 17.1576 56.7153 15.4876C55.5887 13.805 56.0543 10.7994 54.6275 9.3725C53.2007 7.94572 50.195 8.41119 48.5124 7.28467C46.8424 6.16665 46.1279 3.20757 44.2491 2.42832C42.4027 1.66288 39.808 3.24219 37.8009 2.84507C35.853 2.45966 34.0608 0 32 0C29.9392 0 28.147 2.45974 26.1991 2.84507C24.192 3.24219 21.5974 1.66296 19.7509 2.42832C17.8721 3.20764 17.1576 6.16665 15.4876 7.28467C13.8051 8.41126 10.7994 7.94572 9.3725 9.3725C7.94571 10.7993 8.41119 13.805 7.28467 15.4876C6.16665 17.1576 3.20757 17.8721 2.42832 19.7509C1.66288 21.5973 3.24219 24.192 2.84507 26.1991C2.45966 28.1469 0 29.9392 0 32C0 34.0608 2.45974 35.853 2.84507 37.8009C3.24219 39.808 1.66296 42.4026 2.42832 44.2491C3.20764 46.1279 6.16665 46.8424 7.28467 48.5124C8.41126 50.195 7.94571 53.2006 9.3725 54.6275C10.7993 56.0543 13.805 55.5888 15.4876 56.7153C17.1576 57.8334 17.8721 60.7924 19.7509 61.5717C21.5973 62.3371 24.192 60.7578 26.1991 61.1549C28.1469 61.5404 29.9392 64 32 64C34.0608 64 35.853 61.5403 37.8009 61.1549C39.808 60.7578 42.4026 62.3371 44.2491 61.5717C46.1279 60.7924 46.8424 57.8334 48.5124 56.7153C50.1949 55.5887 53.2006 56.0543 54.6275 54.6275C56.0543 53.2007 55.5888 50.195 56.7153 48.5124C57.8333 46.8424 60.7924 46.1279 61.5717 44.2491C62.337 42.4026 60.7578 39.8079 61.1549 37.8009ZM32 55.604C18.9639 55.604 8.39596 45.0361 8.39596 32C8.39596 18.9639 18.9639 8.39597 32 8.39597C45.0361 8.39597 55.604 18.9639 55.604 32C55.604 45.0361 45.0361 55.604 32 55.604Z" fill="#1DBF73"/>
<path d="M29.3144 43.2073C28.494 43.2073 27.6737 42.8943 27.0478 42.2684L19.4448 34.6654C18.1929 33.4136 18.1929 31.384 19.4448 30.1321C20.6966 28.8802 22.7263 28.8802 23.9781 30.1321L29.3144 35.4684L40.0217 24.7612C41.2735 23.5093 43.3032 23.5093 44.555 24.7612C45.8068 26.013 45.8068 28.0426 44.555 29.2945L31.5811 42.2684C30.9552 42.8943 30.1347 43.2073 29.3144 43.2073Z" fill="#1DBF73"/>
</svg>
