<svg width="105" height="48" viewBox="0 0 105 48" fill="none" xmlns="http://www.w3.org/2000/svg">
<path d="M58.6993 6.93812C58.6993 6.93812 63.1976 8.12107 72.6677 2.56118C72.6677 2.56118 76.2191 -0.542318 76.4558 3.13873C76.4558 3.13873 76.8109 5.40029 75.5088 8.83084C75.5088 8.83084 73.8515 12.498 73.0229 12.7346C72.1942 12.9712 67.8143 12.9712 66.157 12.9712C64.4998 12.9712 59.6463 12.3797 59.6463 12.3797L57.2788 9.7772L58.6993 6.93812Z" fill="#00B29D"/>
<path d="M29.3419 14.3906C29.3419 14.3906 28.5133 16.8748 28.5133 17.9395C28.5133 17.9395 28.1582 21.2517 31.1176 19.4773C31.1176 19.4773 42.6001 11.9064 50.2946 14.154L51.8335 11.7881L50.7124 9.32551L42.245 4.92696L39.6407 5.75502C39.6407 5.75502 35.8526 7.29285 35.2608 7.88433C34.6689 8.4758 29.3419 14.3906 29.3419 14.3906Z" fill="#00B29D"/>
<path d="M28.7501 16.4015C28.7501 16.4015 31.9463 2.08775 41.4164 0.194998C41.4164 0.194998 46.3882 -1.34283 54.5562 4.21706C54.5562 4.21706 63.1977 10.3684 69.7084 10.605C69.7084 10.605 74.3251 10.9599 76.3375 5.75489C76.3375 5.75489 75.864 18.2942 64.9734 18.6491C64.9734 18.6491 57.2788 18.8857 49.7028 13.9173C49.7028 13.9173 36.7997 3.62558 28.7501 16.4015Z" fill="#F2BD2C"/>
<path d="M1.952 44V32.8H7.568C8.35733 32.8 9.05067 32.9547 9.648 33.264C10.2453 33.5627 10.7093 33.9787 11.04 34.512C11.3707 35.0453 11.536 35.664 11.536 36.368C11.536 37.0827 11.36 37.7227 11.008 38.288C10.6667 38.8427 10.192 39.2853 9.584 39.616C8.98667 39.936 8.31467 40.096 7.568 40.096H4.544V44H1.952ZM8.96 44L5.728 38.944L8.544 38.544L12.096 44H8.96ZM4.544 38.016H7.296C7.59467 38.016 7.856 37.952 8.08 37.824C8.31467 37.696 8.496 37.52 8.624 37.296C8.76267 37.072 8.832 36.8107 8.832 36.512C8.832 36.224 8.75733 35.9733 8.608 35.76C8.46933 35.536 8.272 35.3653 8.016 35.248C7.77067 35.1307 7.47733 35.072 7.136 35.072H4.544V38.016ZM13.666 44L18.546 32.8H20.962L25.81 44H23.026L20.434 37.936C20.338 37.7013 20.242 37.4667 20.146 37.232C20.0607 36.9973 19.9753 36.7573 19.89 36.512C19.8047 36.2667 19.7247 36.0267 19.65 35.792C19.5753 35.5573 19.506 35.3333 19.442 35.12L19.986 35.104C19.922 35.36 19.8473 35.6053 19.762 35.84C19.6873 36.0747 19.6073 36.3093 19.522 36.544C19.4367 36.768 19.346 36.9973 19.25 37.232C19.154 37.4667 19.058 37.7067 18.962 37.952L16.37 44H13.666ZM15.954 41.92L16.834 39.872H22.594L23.25 41.92H15.954ZM28.1708 44V32.8H30.6668L37.4348 40.8L36.9708 40.72C36.9068 40.3467 36.8588 39.9893 36.8268 39.648C36.7948 39.3067 36.7628 38.976 36.7308 38.656C36.7094 38.336 36.6881 38.016 36.6668 37.696C36.6561 37.376 36.6508 37.04 36.6508 36.688C36.6508 36.336 36.6508 35.9627 36.6508 35.568V32.8H39.2908V44H36.7628L29.7388 35.744L30.4908 35.856C30.5228 36.2293 30.5548 36.5653 30.5868 36.864C30.6294 37.1627 30.6614 37.4453 30.6828 37.712C30.7148 37.968 30.7361 38.2293 30.7468 38.496C30.7681 38.752 30.7841 39.024 30.7948 39.312C30.8054 39.6 30.8108 39.9147 30.8108 40.256V44H28.1708ZM45.0744 40.96L44.4184 38.656L50.9144 32.8H54.2584L45.0744 40.96ZM43.1864 44V32.8H45.9064V44H43.1864ZM51.2024 44L46.7864 38.4L48.5464 36.704L54.4344 44H51.2024ZM57.1864 44V32.8H62.8024C63.5277 32.8 64.173 32.96 64.7384 33.28C65.3144 33.6 65.773 34.0373 66.1144 34.592C66.4557 35.1467 66.6264 35.7707 66.6264 36.464C66.6264 37.2 66.4504 37.8613 66.0984 38.448C65.7464 39.024 65.2717 39.4827 64.6744 39.824C64.0877 40.1547 63.421 40.32 62.6744 40.32H59.9064V44H57.1864ZM59.8584 37.936H62.2424C62.5197 37.936 62.7757 37.8773 63.0104 37.76C63.2557 37.632 63.4477 37.4613 63.5864 37.248C63.7357 37.0347 63.8104 36.7893 63.8104 36.512C63.8104 36.2347 63.7357 36 63.5864 35.808C63.4477 35.616 63.2557 35.4667 63.0104 35.36C62.7757 35.2533 62.5197 35.2 62.2424 35.2H59.8584V37.936ZM69.827 44V32.8H72.547V41.6H78.435V44H69.827ZM81.4364 44V32.8H90.1404V35.12H84.0764V41.68H90.3004V44H81.4364ZM82.7804 39.408V37.2H89.4204V39.408H82.7804ZM101.029 44L97.1733 38.96L92.2773 32.8H95.6533L99.3973 37.712L104.421 44H101.029ZM92.1973 44L96.9013 37.904L99.0453 39.168L95.4453 44H92.1973ZM99.7013 38.8L97.5733 37.584L100.997 32.8H104.245L99.7013 38.8Z" fill="#00B29D"/>
</svg>
